# xmcd CD database file
#
# Track frame offsets:
#	150
#	15705
#	34202
#	51312
#	67047
#	83027
#	101209
#	118325
#	132493
#	152630
#
# Disc length: 2232 seconds
#
# Revision: 0
# Processed by: cddbd v1.5.2PL0 Copyright (c) Steve Scherf et al.
# Submitted via: CDex 1.51
#
DISCID=8e08b60a
DTITLE=Billy Ray Cyrus - 20th Century Masters - The Milllenium Collection: the Best of Billy Ray Cyrus
DYEAR=2003
DGENRE=Country
TTITLE0=Billy Ray Cyrus - Achy Breaky Heart
TTITLE1=Billy Ray Cyrus - Some Gave All
TTITLE2=Billy Ray Cyrus - Could've Been Me
TTITLE3=Billy Ray Cyrus - She's Not Cryin' Anymore
TTITLE4=Billy Ray Cyrus - Wher'm I Gonna Live
TTITLE5=Billy Ray Cyrus - In The Heart Of A Woman
TTITLE6=Billy Ray Cyrus - Somebody New
TTITLE7=Billy Ray Cyrus - Words By Heart
TTITLE8=Billy Ray Cyrus - It's All The Same To Me
TTITLE9=Billy Ray Cyrus - Busy Man
EXTD=YEAR: 2003
EXTT0=
EXTT1=
EXTT2=
EXTT3=
EXTT4=
EXTT5=
EXTT6=
EXTT7=
EXTT8=
EXTT9=
PLAYORDER=
